<svg width="21" height="20" viewBox="0 0 21 20" fill="none" xmlns="http://www.w3.org/2000/svg">
<path d="M13.9166 11.0833L12.7083 9.875C12.8333 9.22222 12.6458 8.61111 12.1458 8.04167C11.6458 7.47222 10.9999 7.25 10.2083 7.375L8.99992 6.16667C9.23603 6.05556 9.47561 5.97222 9.71867 5.91667C9.96172 5.86111 10.2221 5.83334 10.4999 5.83334C11.5416 5.83334 12.427 6.19792 13.1562 6.92709C13.8853 7.65625 14.2499 8.54167 14.2499 9.58334C14.2499 9.86111 14.2221 10.1215 14.1666 10.3646C14.111 10.6076 14.0277 10.8472 13.9166 11.0833ZM16.5833 13.7083L15.3749 12.5417C15.9027 12.1389 16.3714 11.6979 16.7812 11.2188C17.1909 10.7396 17.5416 10.1944 17.8333 9.58334C17.1388 8.18056 16.1423 7.06597 14.8437 6.23959C13.5451 5.4132 12.0971 5 10.4999 5C10.0971 5 9.70131 5.02778 9.31242 5.08334C8.92353 5.13889 8.54158 5.22222 8.16658 5.33334L6.87492 4.04167C7.44436 3.80556 8.0277 3.62847 8.62492 3.51042C9.22214 3.39236 9.84714 3.33334 10.4999 3.33334C12.5971 3.33334 14.4652 3.9132 16.1041 5.07292C17.743 6.23264 18.9305 7.73611 19.6666 9.58334C19.3471 10.4028 18.927 11.1632 18.4062 11.8646C17.8853 12.566 17.2777 13.1806 16.5833 13.7083ZM16.9999 18.8333L13.4999 15.375C13.0138 15.5278 12.5242 15.6424 12.0312 15.7188C11.5381 15.7951 11.0277 15.8333 10.4999 15.8333C8.4027 15.8333 6.53464 15.2535 4.89575 14.0938C3.25686 12.934 2.06936 11.4306 1.33325 9.58334C1.62492 8.84722 1.99297 8.1632 2.43742 7.53125C2.88186 6.89931 3.38881 6.33334 3.95825 5.83334L1.66659 3.5L2.83325 2.33334L18.1666 17.6667L16.9999 18.8333ZM5.12492 7C4.72214 7.36111 4.35409 7.75695 4.02075 8.1875C3.68742 8.61806 3.4027 9.08334 3.16659 9.58334C3.86103 10.9861 4.85756 12.1007 6.15617 12.9271C7.45478 13.7535 8.9027 14.1667 10.4999 14.1667C10.7777 14.1667 11.0485 14.1493 11.3124 14.1146C11.5763 14.0799 11.8471 14.0417 12.1249 14L11.3749 13.2083C11.2221 13.25 11.0763 13.2813 10.9374 13.3021C10.7985 13.3229 10.6527 13.3333 10.4999 13.3333C9.45825 13.3333 8.57283 12.9688 7.84367 12.2396C7.1145 11.5104 6.74992 10.625 6.74992 9.58334C6.74992 9.43056 6.76033 9.28472 6.78117 9.14584C6.802 9.00695 6.83325 8.86111 6.87492 8.70834L5.12492 7Z" fill="#60809F"/>
</svg>
