<svg width="21" height="20" viewBox="0 0 21 20" fill="none" xmlns="http://www.w3.org/2000/svg">
<path d="M10.4999 13.3333C11.5416 13.3333 12.427 12.9688 13.1562 12.2396C13.8853 11.5104 14.2499 10.625 14.2499 9.58334C14.2499 8.54167 13.8853 7.65625 13.1562 6.92709C12.427 6.19792 11.5416 5.83334 10.4999 5.83334C9.45825 5.83334 8.57283 6.19792 7.84367 6.92709C7.1145 7.65625 6.74992 8.54167 6.74992 9.58334C6.74992 10.625 7.1145 11.5104 7.84367 12.2396C8.57283 12.9688 9.45825 13.3333 10.4999 13.3333ZM10.4999 11.8333C9.87492 11.8333 9.34367 11.6146 8.90617 11.1771C8.46867 10.7396 8.24992 10.2083 8.24992 9.58334C8.24992 8.95834 8.46867 8.42709 8.90617 7.98959C9.34367 7.55209 9.87492 7.33334 10.4999 7.33334C11.1249 7.33334 11.6562 7.55209 12.0937 7.98959C12.5312 8.42709 12.7499 8.95834 12.7499 9.58334C12.7499 10.2083 12.5312 10.7396 12.0937 11.1771C11.6562 11.6146 11.1249 11.8333 10.4999 11.8333ZM10.4999 15.8333C8.47214 15.8333 6.62492 15.2674 4.95825 14.1354C3.29159 13.0035 2.08325 11.4861 1.33325 9.58334C2.08325 7.68056 3.29159 6.1632 4.95825 5.03125C6.62492 3.89931 8.47214 3.33334 10.4999 3.33334C12.5277 3.33334 14.3749 3.89931 16.0416 5.03125C17.7083 6.1632 18.9166 7.68056 19.6666 9.58334C18.9166 11.4861 17.7083 13.0035 16.0416 14.1354C14.3749 15.2674 12.5277 15.8333 10.4999 15.8333ZM10.4999 14.1667C12.0694 14.1667 13.5103 13.7535 14.8228 12.9271C16.1353 12.1007 17.1388 10.9861 17.8333 9.58334C17.1388 8.18056 16.1353 7.06597 14.8228 6.23959C13.5103 5.4132 12.0694 5 10.4999 5C8.93047 5 7.4895 5.4132 6.177 6.23959C4.8645 7.06597 3.86103 8.18056 3.16659 9.58334C3.86103 10.9861 4.8645 12.1007 6.177 12.9271C7.4895 13.7535 8.93047 14.1667 10.4999 14.1667Z" fill="#60809F"/>
</svg>
