<svg width="53" height="44" viewBox="0 0 53 44" fill="none" xmlns="http://www.w3.org/2000/svg">
<rect width="52" height="44" transform="translate(0.5)" fill="#F7F7F7"/>
<path d="M26.5 22C25.4 22 24.4583 21.6083 23.675 20.825C22.8917 20.0417 22.5 19.1 22.5 18C22.5 16.9 22.8917 15.9583 23.675 15.175C24.4583 14.3917 25.4 14 26.5 14C27.6 14 28.5417 14.3917 29.325 15.175C30.1083 15.9583 30.5 16.9 30.5 18C30.5 19.1 30.1083 20.0417 29.325 20.825C28.5417 21.6083 27.6 22 26.5 22ZM18.5 30V27.2C18.5 26.6333 18.6458 26.1125 18.9375 25.6375C19.2292 25.1625 19.6167 24.8 20.1 24.55C21.1333 24.0333 22.1833 23.6458 23.25 23.3875C24.3167 23.1292 25.4 23 26.5 23C27.6 23 28.6833 23.1292 29.75 23.3875C30.8167 23.6458 31.8667 24.0333 32.9 24.55C33.3833 24.8 33.7708 25.1625 34.0625 25.6375C34.3542 26.1125 34.5 26.6333 34.5 27.2V30H18.5ZM20.5 28H32.5V27.2C32.5 27.0167 32.4542 26.85 32.3625 26.7C32.2708 26.55 32.15 26.4333 32 26.35C31.1 25.9 30.1917 25.5625 29.275 25.3375C28.3583 25.1125 27.4333 25 26.5 25C25.5667 25 24.6417 25.1125 23.725 25.3375C22.8083 25.5625 21.9 25.9 21 26.35C20.85 26.4333 20.7292 26.55 20.6375 26.7C20.5458 26.85 20.5 27.0167 20.5 27.2V28ZM26.5 20C27.05 20 27.5208 19.8042 27.9125 19.4125C28.3042 19.0208 28.5 18.55 28.5 18C28.5 17.45 28.3042 16.9792 27.9125 16.5875C27.5208 16.1958 27.05 16 26.5 16C25.95 16 25.4792 16.1958 25.0875 16.5875C24.6958 16.9792 24.5 17.45 24.5 18C24.5 18.55 24.6958 19.0208 25.0875 19.4125C25.4792 19.8042 25.95 20 26.5 20Z" fill="#60809F"/>
</svg>
